<svg xmlns="http://www.w3.org/2000/svg" width="160" height="154" viewBox="0 0 160 154">
    <path fill="#00DCF0" fill-rule="evenodd" d="M91.429 42.693v22.64L68.57 42.693h-19.81V31.036L38.109 20.17c-.008-.24-.013-.482-.013-.725C38.095 8.706 46.623 0 57.143 0 67.663 0 76.19 8.706 76.19 19.444V38.13l7.62 7.768V19.444C83.81 8.706 92.337 0 102.857 0c10.52 0 19.048 8.706 19.048 19.444 0 .243-.005.485-.013.725l-10.654 10.867v11.657h-19.81zm51.882 22.64l5.79-5.914C155.543 62.537 160 69.237 160 77s-4.456 14.463-10.9 17.58l-5.789-5.913h-24.454V65.333h24.454zm-24.454 31.111h19.722c5.95 3.29 9.992 9.718 9.992 17.112 0 9.977-7.36 18.199-16.84 19.315l-12.874-13.13V96.443zm-7.619 26.52l10.654 10.867c.008.24.013.482.013.725 0 10.738-8.528 19.444-19.048 19.444-10.52 0-19.047-8.706-19.047-19.444v-18.64l-7.62-7.777v26.417c0 10.738-8.527 19.444-19.047 19.444-10.52 0-19.048-8.706-19.048-19.444 0-.243.005-.485.013-.725l10.654-10.867v-11.657h19.81v-22.64l22.857 22.64h19.81v11.657zm7.62-65.408V34.26l12.872-13.131c9.48 1.116 16.841 9.338 16.841 19.315 0 7.394-4.041 13.823-9.992 17.112h-19.722zm-102.17 31.11L10.9 94.582C4.456 91.463 0 84.763 0 77s4.456-14.463 10.9-17.58l5.789 5.913h24.454v23.334H16.689zm4.733-31.11c-5.95-3.29-9.992-9.718-9.992-17.112 0-9.977 7.36-18.199 16.84-19.315l12.874 13.13v23.297H21.42zm19.722 38.888v23.296L28.27 132.871c-9.48-1.116-16.841-9.338-16.841-19.315 0-7.394 4.041-13.823 9.992-17.112h19.722z"/>
</svg>
